<?xml version="1.0" encoding="utf-8"?>
<!-- Generator: Adobe Illustrator 15.1.0, SVG Export Plug-In . SVG Version: 6.00 Build 0)  -->
<!DOCTYPE svg PUBLIC "-//W3C//DTD SVG 1.1//EN" "http://www.w3.org/Graphics/SVG/1.1/DTD/svg11.dtd">
<svg version="1.1" id="Layer_1" xmlns="http://www.w3.org/2000/svg" xmlns:xlink="http://www.w3.org/1999/xlink" x="0px" y="0px"
	 width="64.385px" height="85.983px" viewBox="0 0 64.385 85.983" enable-background="new 0 0 64.385 85.983" xml:space="preserve">
<g>
	<g>
		<path fill-rule="evenodd" clip-rule="evenodd" fill="#B4D234" d="M36.425,80.182c0.369,0.611,0.667,0.359,1.655,0.521
			c0.35,1.252,1.384,2.152,2.551,1.559c-0.481-0.137-0.486-2.27-0.006-2.4c0.777,1.605,2.135,2.611,4.365,2.717
			c-0.188-1.012-0.838-1.541-0.59-3.004c1.191,1.08,2.461,2.078,4.945,1.82c-0.209-1.592-1.545-2.018-1.754-3.607
			c1.551,1.121,3.963,1.877,6.398,1.225c-0.621-1.566-2.047-2.305-2.629-3.914c1.739,1.145,5.629,1.354,6.975-0.275
			c-1.306-0.348-2.547-2.576-4.08-3.615c3.252,0.67,6.06-0.645,7.26-2.975c-1.425-0.938-3.119-1.596-4.365-2.717
			c3.227,1.047,5.463-0.994,6.674-2.976c-1.922-1.027-4.463-1.414-6.109-2.725c3.911,0.053,5.813-1.973,6.67-5.078
			c-1.814-0.635-4.967,0.109-6.105-1.223c3.887-0.99,4.273-4.156,5.502-7.486c-2.433-0.112-5.317,0.889-7.265,0.275
			c3.942-1.191,3.526-5.098,4.333-9.59c-3.879-0.418-5.902,1.08-8.42,2.07c3.872-5.549,2.541-6.972,3.748-11.393
			c-5.154-0.953-6.34,1.754-10.771,2.411c5.019-5.286,2.382-8.256,2.315-12.349c-2.843,0.453-5.018,1.596-6.965,2.977
			c1.775-5.597,0.072-7.164,0.55-11.403c-2.122,0.401-4.291,2.345-5.514,2.68C36.973,8.712,36.856,3.609,35.763,0
			c-4.099,1.849-6.396,5.562-6.362,11.683c-1.372-0.99-2.442-2.293-3.786-3.316c-1.47,3.351-4.181,8.209-2,12.6
			c-2.07-1.174-3.904-2.592-5.822-3.924c-0.238,2.191-1.807,4.461-1.146,6.602c-0.371,0.014-0.401,0.383-0.871,0.295
			c0.347,2.057,2.047,4.306,2.34,5.411c-1.905-1.646,1.38,3.744-1.715,3.327c-0.163,2.979-5.531-1.064-5.535,1.75
			c0.737,1.148,2.966,2.348,2.913,3.311c-1.831-1.52-3.503-1.617-6.877-1.547c0.858,4.533-0.144,9.398,3.706,10.842
			c-2.574-0.729,5.83,3.076,2.418,3.02c0.732,1.699-9.704,0.092-8.799,1.461c0.793,1.197,2.106,1.252,2.912,2.41
			c-2.286,0.031,13.156,4.314,11.262,4.754c1.218,3.154-13.472,1.539-9.791,2.154c-2.331,0.885,5.289,2.236,3.541,3.721
			c1.529,1.829-6.584,1.728-3.526,1.983c-1.951,0.479,2.896,1.299,0.663,1.486c0.772,3.297-0.363,3.365,2.546,3.627
			c-1.75,0.984,7.332-2.708,6.067-1.222c1.574,1.967-3.971,6.204-2.279,4.839c-1.161,1.691-2.807,2.883-3.766,4.789
			c2.822,0.996,5.93-1.025,7.261-1.475c-0.059,1.543-2.016,2.695-1.15,4.197c1.774-0.76,3.885-1.168,4.932-2.684
			c0.861,0.658-0.706,2.264,0.299,3.006c1.764-0.771,2.914-2.18,4.059-3.588c0.225,0.711,0.579,2.074,0.006,2.703
			c1.556-0.289,1.148-0.473,2.092-1.395c0.692-0.473,1.948-1.412,0.519-0.398c1.779-0.654,1.768-3.164,2.604-4.795l0.147-0.451
			c0.016-0.324,0.127-0.58,0.431-0.746l1.258,2.41l0.92,1.889l0.479,0.609L36.425,80.182z"/>
	</g>
	<path fill-rule="evenodd" clip-rule="evenodd" fill="#64873D" d="M37.158,78.624c0.444,0.442,0.646,0.165,1.524,0.094
		c0.565,0.994,1.639,1.541,2.509,0.788c-0.439-0.016-0.897-1.835-0.516-2.051c1.006,1.206,2.379,1.775,4.306,1.392
		c-0.375-0.823-1.044-1.139-1.143-2.439c1.246,0.669,2.543,1.249,4.609,0.503c-0.516-1.315-1.748-1.396-2.266-2.708
		c1.563,0.626,3.784,0.758,5.725-0.318c-0.863-1.204-2.238-1.531-3.078-2.78c1.729,0.606,5.095-0.043,5.897-1.72
		c-1.189-0.019-2.724-1.658-4.254-2.22c2.92-0.119,5.036-1.84,5.565-4.084c-1.416-0.498-3.003-0.699-4.306-1.392
		c2.978,0.208,4.452-2.011,5.063-3.963c-1.857-0.467-4.111-0.254-5.795-1.023c3.351-0.788,4.543-2.923,4.613-5.757
		c-1.684-0.155-4.218,1.149-5.474,0.255c3.108-1.672,2.765-4.458,3.104-7.563c-2.101,0.422-4.352,1.891-6.145,1.782
		c3.113-1.856,1.926-5.104,1.658-9.111c-3.4,0.469-4.811,2.179-6.748,3.561c2.125-5.563,0.685-6.493,0.774-10.525
		c-4.604,0.284-5.038,2.847-8.683,4.351c3.16-5.581,0.275-7.555-0.652-11.035c-2.331,0.992-3.944,2.43-5.313,4.023
		c0.325-5.156-1.463-6.133-1.958-9.854c-1.728,0.795-3.165,2.915-4.138,3.461c0.369-2.808-0.817-7.14-2.519-9.988
		c-3.106,2.45-4.277,6.109-2.945,11.33c-1.382-0.555-2.574-1.439-3.939-2.026c-0.542,3.174-1.822,7.899,0.976,11.185
		c-2.018-0.562-3.886-1.383-5.807-2.111c0.263,1.921-0.593,4.193,0.427,5.881c-0.314,0.089-0.261,0.411-0.681,0.437
		c0.734,1.682,2.665,3.241,3.15,4.122c-1.977-1,4.431,2.756,1.699,3.059c0.495,2.579-7.404,0.416-6.809,2.82
		c0.874,0.824,3.032,1.373,3.192,2.207c-1.887-0.908,1.878,1.46-0.987,2.238c1.697,3.688-3.337,5.959,0.258,6.373
		c-2.353-0.074,4.439,1.057,1.514,1.733c0.987,1.297-7.073,2.475-6.009,3.45c0.932,0.854,2.065,0.622,3,1.438
		c-1.944,0.514,2.882,1.234,1.357,2.014c1.711,2.434-1.904,3.829,1.37,3.57c-1.802,1.253,8.78,0.261,7.603,1.901
		c1.696,1.238-9.042,3.4-6.377,2.968c-1.563,0.822,6.936-0.352,5.068,0.283c1.361,2.65-3.779,3.795-1.239,3.399
		c-1.284,1.212,3.621-0.646,2.856,0.89c1.763,1.347-0.006,2.918,1.148,1.391c-0.631,1.693,2.316-3.844,1.902-2.013
		c2.622,0.25,0.746,4.77,1.787,4.1c0.278,1.329-1.147,2.731-0.089,3.829c1.354-1.024,3.068-1.823,3.64-3.342
		c0.875,0.381-0.121,2.083,0.895,2.502c1.342-1.031,2.023-2.479,2.702-3.927c0.343,0.559,0.936,1.649,0.581,2.307
		c1.267-0.577,0.275-1.896,0.885-2.883c0.49-0.551,1.968-0.374,0.963,0.798c1.379-0.938,0.836-3.078,1.202-4.648l0.029-0.419
		c-0.055-0.278-0.014-0.521,0.21-0.728l1.587,1.791l1.188,1.416l0.54,0.418L37.158,78.624z"/>
	<path fill-rule="evenodd" clip-rule="evenodd" fill="#8BC53F" d="M37.452,77.138c0.475,0.282,0.586,0.004,1.322-0.246
		c0.693,0.729,1.727,0.969,2.309,0.14c-0.377,0.081-1.156-1.376-0.877-1.64c1.115,0.815,2.41,1.009,3.973,0.271
		c-0.495-0.623-1.133-0.751-1.494-1.843c1.207,0.308,2.438,0.528,4.043-0.55c-0.721-1.013-1.79-0.818-2.511-1.83
		c1.468,0.202,3.392-0.157,4.819-1.488c-0.994-0.846-2.237-0.831-3.219-1.721c1.604,0.15,4.34-1.122,4.668-2.724
		c-1.02,0.237-2.679-0.836-4.105-0.989c2.469-0.724,3.91-2.644,3.885-4.673c-1.316-0.124-2.714,0.043-3.974-0.271
		c2.587-0.457,3.374-2.666,3.48-4.461c-1.687-0.005-3.565,0.654-5.167,0.356c2.693-1.385,3.257-3.462,2.713-5.896
		c-1.471,0.226-3.355,1.881-4.619,1.384c2.299-2.09,1.412-4.395,1.041-7.118c-1.703,0.808-3.313,2.541-4.867,2.829
		c2.264-2.248,0.559-4.768-0.523-8.133c-2.803,1.124-3.644,2.885-5.004,4.477c0.63-5.201-0.798-5.69-1.58-9.152
		c-3.87,1.223-3.696,3.504-6.488,5.564c1.51-5.438-1.373-6.51-2.906-9.285c-1.778,1.344-2.851,2.916-3.681,4.567
		c-0.82-4.472-2.554-4.925-3.769-7.997c-1.306,1.046-2.082,3.164-2.796,3.837c-0.283-2.477-2.219-5.923-4.278-7.993
		c-2.13,2.754-2.352,6.128-0.103,10.301c-1.297-0.179-2.503-0.68-3.794-0.891c0.214,2.825,0.125,7.133,3.213,9.342
		c-1.842-0.049-3.612-0.353-5.407-0.566c0.633,1.584,0.386,3.707,1.616,4.931c-0.248,0.143-0.135,0.407-0.489,0.517
		c0.985,1.281,2.966,2.202,3.568,2.852c-1.9-0.434-4.184,0.457-6.452,1.298c0.972,2.097,2.32,2.882,3.34,4.809
		c0.922,0.518,2.882,0.527,3.195,1.206c-1.804-0.374-4.04,0.742-6.321,2.018c2.236,2.786,4.375,5.901,7.532,5.489
		c-2.024,0.438-3.241,1.221-5.594,2.423c1.118,0.896,1.744,2.354,2.86,2.96c0.979,0.529,1.896,0.091,2.868,0.59
		c-1.551,0.854-2.407,1.928-3.542,2.916c1.979,1.717,4.319,2.189,7.06,1.272c-1.271,1.451-3.134,2.712-3.789,4.361
		c1.711,0.695,3.688,0.471,5.873-0.467c-1.16,1.036-1.356,2.383-2.816,3.324c1.728,1.973,4.784-0.114,6.869-0.993
		c-0.837,1.307-1.543,2.66-1.868,4.138c1.791,0.772,5.113-1.494,5.773-3.043c-0.178,1.579-0.87,2.992-0.833,4.645
		c2.292-0.347,3.682-2.857,4.429-3.649c0.521,1.077-0.399,2.576,0.739,3.289c0.937-1.164,2.231-2.211,2.396-3.628
		c0.829,0.137,0.341,1.804,1.297,1.945c0.926-1.167,1.2-2.549,1.471-3.929c0.413,0.405,1.15,1.209,0.987,1.847
		c0.959-0.765,0.613-0.74,0.925-1.713c0.301-0.574,0.818-1.676,0.209-0.463c0.979-1.094,0.059-2.807,0.037-4.224l-0.064-0.364
		c-0.105-0.226-0.123-0.443,0.024-0.665l1.736,1.19l1.315,0.956l0.551,0.243L37.452,77.138z"/>
</g>
</svg>
